{"glyphs":{":":{"x_min":0,"x_max":329,"ha":329,"o":"m 125 365 q 125 384 138 397 q 150 410 169 410 q 188 410 201 397 q 214 384 214 365 q 214 346 201 333 q 188 321 169 321 q 150 321 138 334 q 125 347 125 365 z m 35 37 q 35 56 48 68 q 60 81 79 81 q 98 81 111 68 q 124 56 124 37 q 124 19 111 6 q 98 -7 79 -7 q 61 -7 48 6 q 35 19 35 37 z"},"$":{"x_min":0,"x_max":481,"ha":481,"o":"m 237 425 q 260 414 274 407 q 288 401 295 398 l 369 653 q 357 657 344 660 q 331 662 318 662 q 316 662 312 662 q 307 661 305 661 z m 223 434 l 287 660 q 226 653 189 618 q 152 583 152 535 q 152 503 170 478 q 188 452 223 434 z m 199 3 q 275 9 319 53 q 362 98 362 170 q 362 208 341 236 q 321 264 279 282 z m 120 18 q 135 12 151 9 q 167 6 183 6 l 265 291 q 255 296 236 306 q 216 316 207 321 z m 73 -147 l 57 -143 l 101 11 q 78 21 44 45 q 9 68 -5 68 q -14 68 -24 58 q -33 49 -47 25 l -62 30 q -59 37 -52 53 q -2 168 27 256 l 41 253 q 31 225 27 199 q 22 173 22 150 q 22 110 42 80 q 62 51 106 27 l 193 330 q 153 358 134 396 q 114 433 114 481 q 114 562 163 616 q 211 670 292 677 l 321 778 l 337 773 l 309 678 l 317 678 q 328 678 341 677 q 354 675 374 671 l 404 777 l 420 773 l 389 665 q 400 659 419 648 q 466 623 476 623 q 486 623 495 631 q 503 639 510 654 l 523 651 l 461 457 l 448 461 q 452 477 453 491 q 455 505 455 517 q 455 563 437 596 q 419 628 383 646 l 309 388 q 373 357 402 318 q 430 279 430 221 q 430 122 364 55 q 297 -11 195 -12 l 156 -146 l 141 -140 l 178 -12 q 162 -11 147 -7 q 131 -3 116 3 z"},"?":{"x_min":0,"x_max":449,"ha":449,"o":"m 40 30 q 40 49 53 62 q 65 75 84 75 q 103 75 115 62 q 128 49 128 30 q 128 11 115 -1 q 103 -14 84 -14 q 65 -14 53 -1 q 40 12 40 30 z m 137 182 l 122 187 l 162 308 q 171 337 181 359 q 190 380 200 393 q 219 417 256 431 q 263 433 266 434 q 341 463 377 496 q 413 529 413 569 q 413 608 381 635 q 349 661 300 661 q 259 661 229 643 q 199 625 199 603 q 199 590 215 583 q 222 581 226 579 q 238 573 243 564 q 248 556 248 543 q 248 526 238 516 q 228 506 211 506 q 190 506 177 521 q 165 536 165 561 q 165 610 203 643 q 240 676 296 676 q 362 676 401 636 q 439 597 439 530 q 439 475 402 430 q 366 385 293 351 q 285 347 266 340 q 211 318 187 295 q 169 278 157 243 q 156 238 155 236 z"},"<":{"x_min":0,"x_max":833,"ha":833,"o":"m 704 559 l 704 497 l 216 298 l 704 100 l 704 37 l 129 273 l 129 323 z"},"'":{"x_min":0,"x_max":170,"ha":170,"o":"m 93 422 l 77 422 l 45 645 q 44 649 44 653 q 44 657 44 664 q 44 688 54 701 q 65 714 85 714 q 105 714 116 701 q 127 688 127 665 q 127 661 125 648 q 125 646 125 645 z"},"=":{"x_min":0,"x_max":833,"ha":833,"o":"m 124 233 l 709 233 l 709 176 l 124 176 z m 124 420 l 709 420 l 709 363 l 124 363 z"},"a":{"x_min":0,"x_max":470,"ha":470,"o":"m 304 267 q 307 277 308 286 q 309 296 309 304 q 309 343 288 368 q 266 393 233 393 q 195 393 164 369 q 133 345 108 296 q 85 253 72 199 q 58 146 58 102 q 58 56 76 30 q 94 5 128 5 q 172 5 210 41 q 249 77 266 136 z m 330 89 q 325 71 322 58 q 319 44 319 38 q 319 26 325 18 q 332 10 340 10 q 355 10 379 33 q 403 57 429 97 l 441 89 q 403 31 375 10 q 347 -12 313 -12 q 286 -12 269 4 q 252 21 245 54 q 216 22 186 6 q 155 -10 123 -10 q 62 -10 24 35 q -14 79 -14 152 q -14 196 -1 237 q 11 277 35 309 q 69 356 118 383 q 167 410 216 410 q 260 410 287 389 q 313 367 320 326 l 342 398 l 418 398 z"},"L":{"x_min":0,"x_max":569,"ha":569,"o":"m -81 0 l -78 14 l -3 14 l 173 648 l 98 648 l 102 662 l 352 662 l 348 648 l 267 648 l 91 14 l 236 14 q 332 14 403 76 q 474 137 504 246 l 519 246 l 444 0 z"},"3":{"x_min":0,"x_max":481,"ha":481,"o":"m 124 359 l 128 372 q 141 372 156 371 q 172 370 175 370 q 271 370 318 416 q 365 462 365 557 q 365 601 341 625 q 317 650 274 650 q 231 650 196 628 q 160 606 160 583 q 160 577 165 573 q 169 570 183 566 q 201 562 209 552 q 217 543 217 529 q 217 512 204 499 q 190 487 172 487 q 151 487 138 502 q 125 517 125 540 q 125 592 171 628 q 217 664 289 664 q 360 664 403 626 q 447 588 447 528 q 447 462 395 419 q 344 376 247 362 q 321 349 361 309 q 401 270 401 212 q 401 119 330 53 q 258 -12 156 -12 q 91 -12 49 21 q 6 53 6 102 q 6 138 27 163 q 48 188 79 188 q 101 188 115 176 q 128 163 128 143 q 128 122 114 108 q 100 95 76 95 q 74 95 68 96 q 61 96 56 96 q 42 96 37 92 q 31 87 31 77 q 31 50 66 26 q 102 2 147 2 q 182 2 210 17 q 238 33 260 64 q 280 92 294 145 q 308 197 308 246 q 308 310 271 334 q 234 359 133 359 z"},";":{"x_min":0,"x_max":329,"ha":329,"o":"m -6 -173 l -11 -159 q 51 -134 90 -97 q 128 -61 128 -31 q 128 -13 100 -12 q 87 -11 81 -10 q 55 -5 41 8 q 27 21 27 41 q 27 62 42 77 q 57 92 80 92 q 113 92 135 67 q 157 42 157 4 q 157 -51 114 -98 q 71 -145 -6 -173 z m 125 365 q 125 384 138 397 q 150 410 169 410 q 188 410 201 397 q 214 384 214 365 q 214 346 201 333 q 188 321 169 321 q 150 321 138 334 q 125 347 125 365 z"},"J":{"x_min":0,"x_max":366,"ha":366,"o":"m 213 161 q 181 46 125 -11 q 70 -69 -11 -69 q -50 -69 -75 -45 q -99 -21 -99 19 q -99 52 -80 73 q -62 95 -33 95 q -9 95 7 79 q 23 62 23 38 q 23 14 8 -1 q -6 -16 -29 -16 q -35 -16 -43 -15 q -52 -14 -53 -14 q -57 -14 -60 -17 q -63 -20 -63 -24 q -63 -35 -45 -43 q -27 -51 -1 -51 q 32 -51 52 -29 q 72 -7 91 59 l 255 648 l 180 648 l 184 662 l 434 662 l 430 648 l 348 648 z"},"V":{"x_min":0,"x_max":454,"ha":454,"o":"m 51 -7 l 154 648 l 85 648 l 89 662 l 328 662 l 324 648 l 244 648 l 168 164 l 465 586 q 476 601 480 611 q 485 622 485 630 q 485 639 474 644 q 463 649 443 649 q 440 649 435 648 q 429 648 426 648 l 430 662 l 564 662 l 560 648 q 526 647 503 614 q 499 608 497 605 l 63 -7 z"},"\"":{"x_min":0,"x_max":331,"ha":331,"o":"m 253 422 l 238 422 l 206 645 q 206 646 206 648 q 204 659 204 664 q 204 688 215 701 q 226 714 246 714 q 266 714 276 701 q 287 688 287 665 q 287 658 287 654 q 287 649 286 645 z m 93 422 l 77 422 l 46 645 q 45 653 44 658 q 44 662 44 665 q 44 688 55 701 q 65 714 85 714 q 105 714 116 701 q 127 688 127 665 q 127 661 125 648 q 125 646 125 645 z"},"7":{"x_min":0,"x_max":481,"ha":481,"o":"m 88 501 l 75 506 q 93 545 109 589 q 125 632 139 683 l 151 681 l 147 662 q 179 646 222 638 q 266 630 323 630 q 393 630 443 642 q 494 653 531 678 l 538 667 q 388 478 296 325 q 204 172 204 119 q 204 107 208 100 q 213 94 228 87 q 256 75 263 64 q 271 54 271 37 q 271 16 259 2 q 247 -12 228 -12 q 203 -12 186 8 q 170 28 170 59 q 170 131 241 262 q 312 393 448 573 q 408 558 363 551 q 318 543 267 543 q 213 543 176 547 q 140 551 114 559 z"},"S":{"x_min":0,"x_max":491,"ha":491,"o":"m 48 236 q 43 216 41 199 q 39 181 39 165 q 39 94 86 48 q 132 3 204 3 q 271 3 319 51 q 366 99 366 168 q 366 243 247 301 l 237 306 q 165 342 137 379 q 109 417 109 473 q 109 558 163 617 q 218 676 296 676 q 326 676 350 670 q 374 665 394 654 q 399 651 408 646 q 437 628 448 628 q 458 628 464 633 q 470 639 479 657 l 493 654 l 438 458 l 425 462 q 429 481 431 496 q 433 511 433 523 q 433 586 397 624 q 361 661 300 661 q 237 661 194 622 q 152 582 152 524 q 152 460 286 397 q 306 388 316 383 q 374 355 401 316 q 428 277 428 221 q 428 124 361 55 q 294 -14 199 -14 q 147 -14 89 14 q 30 42 22 42 q 9 42 -1 31 q -11 20 -17 -2 l -31 2 l 34 238 z"},"}":{"x_min":0,"x_max":500,"ha":500,"o":"m 87 740 l 92 740 q 197 740 237 704 q 277 668 277 571 l 277 467 q 277 390 305 361 q 333 333 414 325 l 414 296 q 334 290 306 260 q 277 231 277 154 l 277 50 q 277 -47 237 -83 q 197 -119 92 -119 l 87 -119 l 87 -94 q 157 -93 182 -68 q 207 -42 207 34 l 207 104 q 207 214 237 255 q 267 295 347 310 q 267 325 237 365 q 207 406 207 516 l 207 586 q 207 662 182 688 q 156 714 87 715 z"},"Z":{"x_min":0,"x_max":553,"ha":553,"o":"m -59 0 l 456 648 l 312 648 q 215 648 162 610 q 110 572 68 475 l 54 475 l 105 662 l 577 662 l 66 14 l 252 14 q 343 14 396 55 q 448 97 490 202 l 504 202 l 448 0 z"},"x":{"x_min":0,"x_max":505,"ha":505,"o":"m 31 293 l 20 303 q 62 359 100 385 q 137 410 178 410 q 221 410 245 387 q 269 365 276 316 q 305 366 331 388 q 358 410 390 410 q 421 410 440 393 q 459 376 459 347 q 459 328 447 314 q 434 301 416 301 q 399 301 389 311 q 379 321 379 338 q 379 359 398 380 q 402 385 402 386 q 402 389 397 390 q 392 392 385 392 q 364 392 346 379 q 329 365 306 331 q 293 311 282 286 q 271 261 260 223 q 249 186 243 154 q 237 121 237 100 q 237 68 250 47 q 264 27 284 27 q 307 27 338 49 q 368 72 410 120 l 422 110 q 379 53 329 20 q 279 -12 236 -12 q 199 -12 179 16 q 160 45 160 99 l 160 110 q 129 51 94 20 q 60 -11 25 -11 q -1 -11 -19 8 q -37 28 -37 57 q -37 83 -24 99 q -11 116 9 116 q 24 116 35 104 q 46 93 46 76 q 46 47 17 26 q 11 21 11 20 q 11 16 18 12 q 24 8 31 8 q 55 8 80 28 q 106 48 128 85 q 141 105 152 131 q 163 157 173 191 q 185 230 191 266 q 198 302 198 323 q 198 352 186 370 q 173 388 154 388 q 129 388 99 365 q 69 342 31 293 z"},")":{"x_min":0,"x_max":324,"ha":324,"o":"m -128 -204 q 11 -111 86 47 q 160 205 160 407 q 160 477 143 541 q 126 605 91 669 l 97 676 q 154 600 186 502 q 218 404 218 308 q 218 151 132 19 q 46 -114 -121 -215 z"},"&":{"x_min":0,"x_max":667,"ha":667,"o":"m 200 358 q 188 396 184 420 q 179 444 179 466 q 179 529 222 576 q 264 623 320 623 q 364 623 391 597 q 418 572 418 529 q 418 482 380 442 q 342 402 277 380 q 296 329 320 281 q 344 232 372 184 q 422 245 457 270 q 492 295 526 295 q 554 295 573 278 q 592 261 592 236 q 592 213 577 198 q 563 183 541 183 q 520 183 505 198 q 490 212 490 233 q 490 236 492 244 q 493 251 493 255 q 493 261 492 264 q 490 267 487 267 q 472 267 444 243 q 416 219 379 173 q 412 108 445 75 q 477 41 506 41 q 527 41 546 58 q 564 75 582 112 l 589 109 q 573 52 539 20 q 505 -13 462 -13 q 425 -13 392 14 q 359 42 323 102 q 271 42 228 14 q 185 -13 144 -13 q 83 -13 40 34 q -3 81 -3 147 q -3 213 46 264 q 96 316 200 358 z m 316 112 q 287 162 260 219 q 232 276 205 343 q 137 315 106 283 q 75 251 75 209 q 75 181 87 149 q 99 118 122 86 q 140 62 161 49 q 182 37 205 37 q 230 37 257 55 q 284 73 316 112 z m 273 390 q 338 415 372 449 q 406 484 406 526 q 406 563 385 585 q 365 607 330 607 q 293 607 270 579 q 247 551 247 507 q 247 480 254 450 q 260 420 273 390 z"},"_":{"x_min":0,"x_max":500,"ha":500,"o":"m 0 -178 l 500 -178 l 500 -236 l 0 -236 z"},"v":{"x_min":0,"x_max":382,"ha":382,"o":"m 89 384 l 30 384 l 34 398 l 72 398 q 107 398 131 401 q 154 404 175 410 l 77 90 q 73 77 70 65 q 68 53 68 46 q 68 31 77 22 q 86 13 101 13 q 121 13 150 33 q 180 53 211 88 q 252 135 280 192 q 307 249 307 280 q 307 299 284 313 q 278 316 276 318 q 261 328 253 339 q 246 350 246 363 q 246 382 258 396 q 271 410 288 410 q 313 410 327 392 q 341 374 341 341 q 341 291 317 230 q 293 169 251 113 q 206 53 159 20 q 112 -12 70 -12 q 37 -12 17 8 q -4 28 -4 60 q -4 69 -1 87 q 2 104 8 122 z"},"O":{"x_min":0,"x_max":657,"ha":657,"o":"m 388 664 q 337 664 296 636 q 254 609 225 556 q 203 517 184 468 q 165 418 149 358 q 133 300 125 250 q 117 201 117 162 q 117 83 157 41 q 196 -2 270 -2 q 321 -2 362 25 q 403 52 433 106 q 454 143 473 192 q 492 242 509 304 q 525 362 533 411 q 541 461 541 499 q 541 579 501 621 q 462 664 388 664 z m 268 -14 q 161 -14 94 61 q 27 136 27 257 q 27 328 53 399 q 79 470 126 529 q 184 602 250 639 q 317 676 389 676 q 496 676 563 601 q 630 526 630 406 q 630 334 604 263 q 579 193 531 133 q 474 61 407 23 q 340 -14 268 -14 z"},"(":{"x_min":0,"x_max":324,"ha":324,"o":"m 408 665 q 268 571 194 414 q 119 256 119 54 q 119 -16 136 -80 q 153 -144 188 -208 l 182 -215 q 125 -139 93 -41 q 61 57 61 153 q 61 310 147 442 q 233 575 400 676 z"},"C":{"x_min":0,"x_max":620,"ha":620,"o":"m 539 162 q 490 74 423 31 q 356 -13 272 -13 q 167 -13 97 66 q 27 146 27 267 q 27 350 58 423 q 89 497 151 560 q 207 618 269 647 q 331 677 394 677 q 423 677 448 672 q 473 667 494 656 q 506 650 532 633 q 558 616 571 616 q 586 616 593 622 q 599 628 604 647 l 619 647 l 571 419 l 556 419 q 561 441 563 458 q 566 475 566 489 q 566 565 520 613 q 474 660 402 660 q 340 660 293 623 q 247 585 204 500 q 165 424 144 340 q 122 255 122 180 q 122 100 167 52 q 211 4 286 4 q 354 4 417 49 q 481 93 523 170 z"},"W":{"x_min":0,"x_max":727,"ha":727,"o":"m 54 -7 l 156 648 l 86 648 l 90 662 l 329 662 l 325 648 l 245 648 l 170 165 l 401 491 l 425 648 l 362 648 l 366 662 l 599 662 l 595 648 l 514 648 l 439 165 l 736 586 q 747 601 751 611 q 756 622 756 630 q 756 639 745 644 q 734 649 713 649 q 710 649 705 648 q 700 648 697 648 l 701 662 l 834 662 l 830 648 q 796 647 771 611 q 768 607 767 606 l 337 -7 l 323 -7 l 396 461 l 68 -7 z"},"A":{"x_min":0,"x_max":474,"ha":474,"o":"m 105 252 l 276 252 l 276 526 z m -117 0 l -117 14 q -86 14 -68 26 q -49 37 -22 80 l 351 676 l 366 676 l 366 14 l 427 14 l 427 0 l 197 0 l 197 14 l 276 14 l 276 238 l 97 238 l -10 70 q -18 57 -21 50 q -24 42 -24 36 q -24 25 -10 21 q 3 16 40 14 l 40 0 z"},"f":{"x_min":0,"x_max":245,"ha":245,"o":"m 91 384 l 4 384 l 8 398 l 96 398 q 134 534 197 610 q 260 686 334 686 q 368 686 387 670 q 407 654 407 628 q 407 609 394 595 q 381 582 363 582 q 342 582 328 595 q 314 607 314 626 q 314 635 321 646 q 327 658 327 661 q 327 664 322 667 q 317 670 311 670 q 278 670 244 602 q 209 535 172 398 l 269 398 l 265 384 l 169 384 q 92 41 23 -104 q -46 -248 -131 -248 q -163 -248 -183 -231 q -203 -214 -203 -188 q -203 -167 -191 -153 q -178 -139 -161 -139 q -141 -139 -128 -152 q -115 -165 -115 -185 q -115 -194 -121 -205 q -127 -215 -127 -216 q -127 -220 -122 -224 q -118 -228 -112 -228 q -84 -228 -58 -182 q -31 -137 -13 -57 q -5 -21 12 56 q 57 265 91 384 z"},"Q":{"x_min":0,"x_max":657,"ha":657,"o":"m 214 -8 q 125 15 77 84 q 28 153 28 256 q 28 329 53 399 q 79 470 126 529 q 184 601 250 638 q 317 676 389 676 q 496 676 563 601 q 630 526 630 406 q 630 336 606 267 q 582 198 536 138 q 489 77 433 40 q 378 3 311 -10 q 299 -44 294 -71 q 288 -98 288 -117 q 288 -157 315 -173 q 343 -189 416 -189 l 435 -189 l 435 -203 q 433 -203 430 -203 q 401 -205 388 -205 q 300 -205 248 -176 q 196 -147 196 -99 q 196 -90 199 -73 q 203 -56 214 -8 z m 388 664 q 337 664 296 636 q 254 609 225 556 q 203 517 184 468 q 165 418 149 358 q 133 300 125 250 q 117 201 117 162 q 117 83 157 41 q 196 -2 270 -2 q 321 -2 362 25 q 403 52 433 106 q 454 143 473 192 q 492 242 509 304 q 525 362 533 411 q 541 461 541 499 q 541 579 501 621 q 462 664 388 664 z"},"w":{"x_min":0,"x_max":625,"ha":625,"o":"m 81 384 l 22 384 l 25 398 l 64 398 q 99 398 122 401 q 145 404 166 410 l 67 90 q 63 77 61 65 q 58 53 58 46 q 58 31 67 22 q 76 13 91 13 q 104 13 120 21 q 136 29 158 47 q 199 81 230 124 q 261 167 272 203 l 329 398 l 405 398 l 314 90 q 310 76 307 64 q 305 52 305 46 q 305 31 314 22 q 323 13 338 13 q 358 13 388 33 q 417 53 448 88 q 489 135 517 192 q 544 249 544 280 q 544 299 521 313 q 516 316 513 318 q 498 328 491 339 q 484 350 484 363 q 484 383 496 396 q 508 410 525 410 q 550 410 564 392 q 578 374 578 341 q 578 291 554 230 q 530 169 488 113 q 443 53 396 21 q 349 -12 308 -12 q 273 -12 253 7 q 233 26 233 60 q 233 67 236 83 q 239 99 244 119 q 195 54 149 21 q 103 -12 61 -12 q 26 -12 6 7 q -14 26 -14 60 q -14 69 -11 87 q -7 104 -2 122 z"},"-":{"x_min":0,"x_max":384,"ha":384,"o":"m 35 168 l 53 232 l 272 232 l 253 168 z"},"E":{"x_min":0,"x_max":569,"ha":569,"o":"m -71 0 l -67 14 l 8 14 l 184 648 l 109 648 l 113 662 l 577 662 l 544 482 l 529 482 q 529 483 529 485 q 531 505 531 516 q 531 581 500 615 q 470 648 411 648 l 277 648 l 198 367 l 255 367 q 311 367 331 386 q 352 404 368 468 l 383 468 l 315 219 l 301 219 q 310 253 314 273 q 318 293 318 302 q 318 326 300 339 q 283 353 252 353 l 193 353 l 101 14 l 262 14 q 340 14 396 65 q 452 116 470 203 l 484 203 l 443 0 z"},"s":{"x_min":0,"x_max":363,"ha":363,"o":"m 191 86 q 191 124 135 170 q 128 175 125 178 q 87 210 75 231 q 63 252 63 279 q 63 333 104 372 q 146 410 206 410 q 256 410 288 389 q 321 368 321 337 q 321 317 308 303 q 294 290 274 290 q 253 290 240 303 q 226 315 226 334 q 226 357 255 375 q 260 377 260 378 q 260 384 246 390 q 232 396 213 396 q 173 396 148 374 q 123 352 123 318 q 123 285 190 234 q 201 226 206 222 q 245 192 257 170 q 269 148 269 118 q 269 65 219 27 q 168 -11 97 -11 q 41 -11 3 18 q -35 46 -35 87 q -35 111 -19 129 q -3 146 18 146 q 40 146 54 134 q 68 121 68 102 q 68 90 59 79 q 51 67 36 60 q 29 57 16 53 q 4 50 4 47 q 4 37 32 21 q 60 6 91 6 q 134 6 163 29 q 191 52 191 86 z"},">":{"x_min":0,"x_max":833,"ha":833,"o":"m 129 559 l 704 323 l 704 273 l 129 37 l 129 100 l 617 298 l 129 497 z"},"l":{"x_min":0,"x_max":262,"ha":262,"o":"m 193 648 l 134 648 l 138 662 l 162 662 q 196 662 226 668 q 255 674 283 687 l 87 88 q 82 72 79 60 q 76 48 76 43 q 76 33 83 25 q 90 18 101 18 q 119 18 146 39 q 173 60 204 99 l 217 90 q 178 40 145 16 q 111 -7 78 -7 q 43 -7 25 10 q 7 26 7 58 q 7 69 10 82 q 12 95 18 112 z"},"8":{"x_min":0,"x_max":481,"ha":481,"o":"m 291 375 q 364 416 399 457 q 434 498 434 543 q 434 592 402 621 q 371 651 318 651 q 263 651 225 617 q 187 584 187 537 q 187 511 213 470 q 240 429 291 375 z m 201 330 q 120 292 75 240 q 31 188 31 133 q 31 77 73 40 q 114 3 177 3 q 240 3 283 39 q 326 75 326 128 q 326 169 297 217 q 268 265 201 330 z m 189 343 q 159 379 144 412 q 129 445 129 474 q 129 553 185 609 q 242 665 322 665 q 378 665 414 633 q 449 601 449 549 q 449 497 413 451 q 376 406 300 365 q 347 316 370 270 q 392 223 392 174 q 392 97 332 43 q 271 -11 182 -11 q 107 -11 62 29 q 16 70 16 134 q 16 191 60 244 q 104 297 189 343 z"},"\\":{"x_min":0,"x_max":278,"ha":278,"o":"m 172 -93 l 149 -93 l 108 676 l 131 676 z"},"e":{"x_min":0,"x_max":347,"ha":347,"o":"m 84 215 q 73 169 67 138 q 62 106 62 86 q 62 49 82 27 q 101 6 135 6 q 172 6 207 32 q 242 59 272 110 l 284 103 q 252 47 212 19 q 171 -10 125 -10 q 67 -10 29 36 q -9 82 -9 153 q -9 195 11 240 q 30 285 66 326 q 101 366 141 388 q 181 410 218 410 q 261 410 286 387 q 311 363 311 324 q 311 274 267 239 q 222 203 160 203 q 144 203 125 206 q 105 209 84 215 z m 87 230 q 103 225 119 222 q 134 219 148 219 q 191 219 220 255 q 249 292 249 347 q 249 371 238 383 q 228 396 207 396 q 171 396 140 353 q 109 310 87 230 z"},"b":{"x_min":0,"x_max":451,"ha":451,"o":"m 260 393 q 221 393 186 363 q 151 333 117 271 q 92 225 78 176 q 64 127 64 89 q 64 52 88 28 q 113 5 150 5 q 182 5 213 28 q 244 51 263 89 q 295 152 313 214 q 332 276 332 315 q 332 354 314 374 q 296 393 260 393 z m 132 648 l 72 648 l 76 662 l 100 662 q 134 662 164 668 q 194 674 222 687 l 116 304 q 151 357 189 382 q 227 407 272 407 q 329 407 365 368 q 400 329 400 265 q 400 213 382 168 q 364 123 326 80 q 287 37 242 15 q 198 -7 148 -7 q 80 -7 37 30 q -6 66 -6 123 q -6 136 -4 150 q -2 163 1 177 z"},"%":{"x_min":0,"x_max":694,"ha":694,"o":"m 566 348 q 542 348 520 321 q 497 293 478 241 q 459 189 448 139 q 438 88 438 53 q 438 29 448 15 q 458 2 475 2 q 496 2 515 21 q 533 40 552 80 q 575 130 590 193 q 605 255 605 297 q 605 322 595 335 q 584 348 566 348 z m 570 362 q 614 362 638 331 q 661 299 661 241 q 661 202 650 163 q 638 124 617 90 q 588 44 550 18 q 512 -8 474 -8 q 431 -8 407 23 q 383 55 383 112 q 383 150 395 189 q 406 228 428 263 q 457 310 494 336 q 532 362 570 362 z m 218 650 q 194 650 172 622 q 149 595 130 542 q 111 490 101 440 q 90 390 90 355 q 90 331 100 317 q 109 304 127 304 q 148 304 167 323 q 186 341 204 381 q 227 431 242 494 q 257 557 257 599 q 257 624 247 637 q 237 650 218 650 z m 220 661 q 264 661 288 630 q 311 599 311 540 q 311 501 300 462 q 289 424 267 390 q 238 343 200 317 q 162 291 124 291 q 81 291 57 323 q 33 354 33 411 q 33 449 45 488 q 56 526 78 562 q 107 609 144 635 q 182 661 220 661 z m 155 -12 l 122 -12 l 539 664 l 571 664 z"},"m":{"x_min":0,"x_max":692,"ha":692,"o":"m 48 0 l -30 0 l 89 384 l 30 384 l 34 398 l 72 398 q 107 398 131 401 q 154 404 175 410 l 135 283 q 186 349 228 380 q 269 410 307 410 q 340 410 360 391 q 379 371 379 337 q 379 323 377 310 q 375 296 372 283 q 423 349 464 380 q 506 410 544 410 q 578 410 597 391 q 616 371 616 337 q 616 321 613 303 q 610 286 604 266 l 540 57 q 538 51 537 45 q 536 40 536 35 q 536 25 542 19 q 549 12 558 12 q 574 12 597 34 q 620 56 646 97 l 657 89 q 620 32 593 10 q 565 -12 532 -12 q 501 -12 485 5 q 469 22 469 54 q 469 70 473 89 q 477 107 487 141 l 537 304 q 543 324 546 338 q 550 353 550 359 q 550 370 544 377 q 539 385 531 385 q 511 385 489 374 q 467 362 442 339 q 403 303 380 267 q 356 230 344 188 l 288 0 l 209 0 l 300 304 q 306 322 309 337 q 312 352 312 359 q 312 371 307 378 q 302 385 294 385 q 248 385 190 326 q 132 268 107 188 z"},"#":{"x_min":0,"x_max":769,"ha":769,"o":"m 342 424 l 293 284 l 434 284 l 484 424 z m 380 711 l 445 711 l 363 481 l 503 481 l 585 711 l 649 711 l 568 481 l 718 481 l 698 424 l 547 424 l 498 284 l 660 284 l 639 228 l 478 228 l 397 -1 l 332 -1 l 413 228 l 273 228 l 192 -1 l 128 -1 l 209 228 l 51 228 l 72 284 l 229 284 l 278 424 l 108 424 l 129 481 l 299 481 z"},",":{"x_min":0,"x_max":241,"ha":241,"o":"m -22 -173 l -28 -159 q 34 -134 73 -97 q 112 -61 112 -31 q 112 -13 83 -12 q 70 -11 64 -10 q 38 -5 24 8 q 10 21 10 41 q 10 62 25 77 q 41 92 63 92 q 96 92 118 67 q 140 42 140 4 q 140 -51 97 -98 q 55 -145 -22 -173 z"},"n":{"x_min":0,"x_max":495,"ha":495,"o":"m 342 89 l 341 86 q 330 50 330 40 q 330 27 336 19 q 342 10 351 10 q 366 10 391 33 q 415 57 441 97 l 453 88 q 417 32 388 10 q 360 -12 327 -12 q 296 -12 280 6 q 263 25 263 58 q 263 69 265 81 q 268 93 272 108 l 334 302 q 335 305 337 311 q 347 344 347 361 q 347 376 338 384 q 330 392 313 392 q 294 392 268 380 q 243 368 215 346 q 176 315 148 276 q 121 236 107 190 l 49 0 l -28 0 l 89 384 l 30 384 l 34 398 l 72 398 q 107 398 131 401 q 154 404 175 410 l 137 286 q 186 348 234 379 q 282 410 329 410 q 368 410 391 389 q 414 369 414 333 q 414 323 411 309 q 408 294 402 275 z"},"h":{"x_min":0,"x_max":495,"ha":495,"o":"m 342 89 q 336 72 334 60 q 331 47 331 40 q 331 27 337 19 q 343 10 352 10 q 367 10 391 33 q 415 57 441 97 l 453 88 q 416 31 388 10 q 361 -12 328 -12 q 297 -12 280 6 q 263 25 263 58 q 263 69 265 81 q 268 94 272 108 l 338 319 q 342 333 345 344 q 347 354 347 361 q 347 376 338 384 q 330 392 313 392 q 294 392 268 380 q 243 368 215 346 q 176 315 148 276 q 121 236 107 190 l 49 0 l -28 0 l 171 648 l 112 648 l 116 662 l 140 662 q 174 662 204 668 q 233 674 261 687 l 137 286 q 186 348 234 379 q 282 410 329 410 q 368 410 391 389 q 414 369 414 333 q 414 323 411 310 q 409 297 402 275 z"},"z":{"x_min":0,"x_max":431,"ha":431,"o":"m 61 319 l 44 275 l 28 275 l 77 395 q 154 384 207 378 q 260 373 294 373 q 308 373 323 375 q 337 377 352 382 q 351 387 350 392 q 349 396 349 400 q 349 405 353 409 q 357 413 363 413 q 369 413 374 408 q 378 404 378 398 q 378 396 375 392 q 373 388 368 383 l 51 75 q 77 80 98 82 q 119 84 137 84 q 185 84 240 65 q 296 47 304 47 q 314 47 321 53 q 328 59 328 68 q 328 74 311 91 q 294 108 294 126 q 294 139 303 148 q 312 157 324 157 q 339 157 348 144 q 358 131 358 111 q 358 59 317 28 q 275 -3 204 -3 q 167 -3 110 14 q 53 31 34 31 q 27 31 19 28 q 11 25 3 20 q 3 18 4 16 q 4 14 4 9 q 4 1 0 -3 q -3 -7 -10 -7 q -17 -7 -22 -2 q -27 2 -27 9 q -27 19 -12 33 q -10 36 -8 37 l 293 331 q 261 320 226 315 q 190 310 150 310 q 127 310 105 312 q 83 314 61 319 z"},"B":{"x_min":0,"x_max":593,"ha":593,"o":"m 188 334 l 99 14 l 199 14 q 255 14 288 24 q 321 35 347 59 q 375 86 394 134 q 412 182 412 228 q 412 281 380 307 q 348 334 284 334 z m 275 648 l 192 348 l 261 348 q 328 348 361 360 q 394 372 417 402 q 440 432 454 475 q 468 518 468 561 q 468 608 436 629 q 404 650 330 650 q 314 650 281 648 q 277 648 275 648 z m -72 0 l -69 14 l 6 14 l 182 648 l 107 648 l 111 662 l 386 662 q 468 662 516 626 q 565 589 565 529 q 565 461 507 409 q 449 357 352 341 q 427 334 469 298 q 510 262 510 202 q 510 117 430 59 q 350 0 231 0 z"},"K":{"x_min":0,"x_max":562,"ha":562,"o":"m -72 0 l -69 14 l 6 14 l 182 648 l 107 648 l 111 662 l 361 662 l 357 648 l 276 648 l 189 335 l 523 611 q 531 617 534 621 q 537 625 537 628 q 537 637 521 643 q 505 648 476 648 l 463 648 l 467 662 l 670 662 l 666 648 q 626 647 586 628 q 546 610 500 572 l 257 371 l 488 14 l 543 14 l 539 0 l 296 0 l 300 14 l 378 14 l 185 320 l 100 14 l 181 14 l 178 0 z"},"R":{"x_min":0,"x_max":521,"ha":521,"o":"m -94 0 l -90 14 l -16 14 l 160 648 l 86 648 l 89 662 l 361 662 q 430 662 472 626 q 514 589 514 530 q 514 461 456 410 q 398 358 302 344 q 354 331 380 300 q 406 269 406 220 q 406 182 391 125 q 376 67 376 47 q 376 32 383 23 q 390 15 403 15 q 417 15 433 27 q 449 38 464 59 l 477 50 q 454 20 433 8 q 412 -5 387 -5 q 345 -5 320 21 q 296 47 296 92 q 296 129 311 193 q 325 257 325 282 q 325 311 307 325 q 288 339 251 339 l 168 339 l 78 14 l 160 14 l 156 0 z m 254 648 l 172 353 l 253 353 q 296 353 328 371 q 361 389 382 423 q 400 453 413 496 q 425 539 425 571 q 425 613 396 631 q 367 650 301 650 q 287 650 260 648 q 256 648 254 648 z"},"T":{"x_min":0,"x_max":650,"ha":650,"o":"m 108 0 l 112 14 l 187 14 l 362 648 l 288 648 q 215 648 163 597 q 110 545 79 444 l 65 444 l 125 662 l 697 662 l 637 444 l 620 444 q 628 476 632 500 q 636 525 636 544 q 636 598 605 623 q 574 648 506 648 l 456 648 l 280 14 l 362 14 l 358 0 z"},"P":{"x_min":0,"x_max":532,"ha":532,"o":"m -76 0 l -72 14 l 3 14 l 178 648 l 104 648 l 107 662 l 347 662 q 441 662 492 622 q 544 582 544 509 q 544 474 528 439 q 513 404 485 378 q 447 341 400 326 q 353 311 257 311 l 179 311 l 96 14 l 178 14 l 174 0 z m 272 648 l 183 325 l 255 325 q 310 325 337 337 q 364 349 387 378 q 412 409 427 456 q 442 502 442 550 q 442 604 411 626 q 381 649 308 649 q 293 649 286 649 q 278 648 272 648 z"},"|":{"x_min":0,"x_max":500,"ha":500,"o":"m 219 764 l 281 764 l 281 -236 l 219 -236 z"},"t":{"x_min":0,"x_max":282,"ha":282,"o":"m 181 398 l 282 398 l 278 384 l 178 384 l 88 88 q 82 70 80 59 q 77 48 77 43 q 77 33 84 25 q 91 18 102 18 q 123 18 155 46 q 186 73 229 129 l 242 119 q 188 48 152 21 q 116 -7 79 -7 q 44 -7 26 10 q 8 26 8 57 q 8 69 10 83 q 13 96 18 112 l 101 384 l 40 384 l 44 398 l 108 398 l 143 518 q 167 520 188 525 q 208 531 227 542 z"},"M":{"x_min":0,"x_max":725,"ha":725,"o":"m -87 0 l -83 14 q -41 15 -23 28 q -5 42 10 94 l 165 648 l 78 648 l 81 662 l 261 662 l 289 136 l 641 662 l 803 662 l 799 648 l 725 648 l 549 14 l 630 14 l 630 0 l 374 0 l 378 14 l 456 14 l 624 610 l 220 0 l 206 0 l 176 622 l 23 78 q 21 71 20 64 q 19 57 19 51 q 19 32 35 23 q 51 15 90 14 l 85 0 z"},"g":{"x_min":0,"x_max":437,"ha":437,"o":"m 240 -15 l 71 -15 q 35 -26 12 -56 q -10 -86 -10 -123 q -10 -173 28 -203 q 66 -233 130 -233 q 163 -233 196 -220 q 229 -208 259 -183 q 288 -160 305 -130 q 322 -100 322 -74 q 322 -44 302 -30 q 282 -15 240 -15 z m 48 -13 q 23 -7 9 10 q -5 27 -5 52 q -5 85 21 110 q 46 135 91 144 q 63 170 50 194 q 37 219 37 246 q 37 307 92 358 q 146 410 213 410 q 251 410 279 395 q 306 380 324 349 q 341 380 361 395 q 380 410 402 410 q 426 410 438 399 q 450 389 450 368 q 450 350 440 338 q 429 326 414 326 q 397 326 387 336 q 376 346 376 361 q 376 362 376 367 q 377 372 377 376 q 377 377 375 379 q 373 380 369 380 q 361 380 353 370 q 344 360 331 335 q 335 320 337 308 q 339 295 339 284 q 339 220 290 172 q 242 125 176 125 q 164 125 147 128 q 131 130 108 136 q 74 133 51 117 q 28 101 28 81 q 28 67 40 60 q 53 53 77 53 l 238 55 l 241 55 q 295 55 323 31 q 351 8 351 -39 q 351 -124 280 -187 q 209 -250 109 -250 q 33 -250 -12 -218 q -56 -187 -56 -134 q -56 -92 -29 -61 q -2 -29 48 -13 z m 216 398 q 196 398 178 388 q 161 379 152 363 q 144 349 139 339 q 135 329 133 322 q 116 265 108 236 q 101 207 101 197 q 101 167 118 153 q 136 138 170 138 q 193 138 209 150 q 226 162 237 189 q 255 231 267 278 q 279 325 279 346 q 279 369 261 384 q 244 398 216 398 z"},"j":{"x_min":0,"x_max":218,"ha":218,"o":"m 91 384 l 31 384 l 35 398 l 73 398 q 108 398 132 401 q 155 404 176 410 l 77 78 q 29 -83 -28 -162 q -84 -241 -152 -241 q -183 -241 -202 -225 q -221 -208 -221 -182 q -221 -160 -209 -147 q -197 -134 -177 -134 q -159 -134 -147 -146 q -136 -157 -136 -176 q -136 -189 -142 -200 q -148 -210 -148 -212 q -148 -216 -145 -219 q -142 -221 -136 -221 q -115 -221 -96 -195 q -77 -169 -61 -119 z m 166 621 q 166 646 181 665 q 196 683 216 683 q 231 683 242 670 q 253 657 253 638 q 253 613 238 595 q 224 578 203 578 q 188 578 177 590 q 166 603 166 621 z"},"i":{"x_min":0,"x_max":248,"ha":248,"o":"m 97 384 l 37 384 l 41 398 l 80 398 q 115 398 138 401 q 161 404 182 410 l 87 95 q 82 79 79 65 q 76 51 76 43 q 76 30 83 23 q 89 16 102 16 q 119 16 141 32 q 162 49 203 95 l 213 87 q 171 36 137 13 q 104 -10 70 -10 q 39 -10 21 8 q 3 25 3 56 q 3 67 6 83 q 9 98 19 129 z m 172 621 q 172 646 187 665 q 202 683 222 683 q 237 683 248 670 q 259 657 259 638 q 259 613 244 595 q 229 578 209 578 q 193 578 183 590 q 172 603 172 621 z"},"y":{"x_min":0,"x_max":451,"ha":451,"o":"m 98 311 q 95 341 88 354 q 81 366 67 366 q 56 366 37 343 q 19 320 -3 278 l -18 284 q 12 348 43 379 q 74 409 109 409 q 137 409 153 392 q 169 374 173 339 l 200 92 l 308 299 q 337 354 364 382 q 391 410 415 410 q 437 410 450 397 q 464 384 464 364 q 464 344 452 331 q 440 318 422 318 q 404 318 394 327 q 383 337 383 352 q 383 357 386 365 q 389 374 389 376 q 389 377 388 378 q 388 379 387 379 q 379 379 358 351 q 338 323 315 280 l 206 74 q 104 -121 44 -185 q -16 -248 -83 -248 q -111 -248 -130 -232 q -148 -216 -148 -191 q -148 -167 -134 -152 q -121 -136 -100 -136 q -81 -136 -70 -148 q -59 -159 -59 -180 q -59 -199 -77 -218 q -80 -221 -80 -222 q -80 -225 -75 -226 q -71 -227 -60 -227 q -17 -227 33 -174 q 84 -120 136 -20 z"},"@":{"x_min":0,"x_max":986,"ha":986,"o":"m 581 164 q 551 112 513 87 q 476 61 430 61 q 369 61 332 106 q 295 151 295 225 q 295 278 319 331 q 343 383 386 425 q 418 456 457 474 q 495 491 532 491 q 575 491 602 467 q 629 443 640 396 l 666 484 l 736 484 l 653 186 q 653 185 652 184 q 644 155 644 133 q 644 110 656 96 q 669 83 690 83 q 707 83 729 92 q 750 100 770 115 q 830 159 861 228 q 893 297 893 382 q 893 450 869 505 q 844 560 794 604 q 750 643 688 664 q 627 685 558 685 q 467 685 391 656 q 316 628 257 571 q 193 509 161 427 q 128 346 128 247 q 128 162 156 98 q 184 35 244 -16 q 300 -63 372 -88 q 443 -112 528 -112 q 607 -112 683 -86 q 758 -61 827 -11 l 842 -29 q 770 -83 689 -110 q 608 -137 522 -137 q 431 -137 355 -115 q 279 -92 221 -47 q 147 8 109 87 q 71 166 71 262 q 71 362 113 448 q 155 535 235 601 q 299 655 377 682 q 455 709 545 709 q 714 709 815 618 q 916 526 916 374 q 916 297 888 229 q 859 161 808 114 q 780 88 748 75 q 715 61 682 61 q 635 61 609 87 q 584 112 581 164 z m 536 471 q 510 471 488 456 q 466 441 443 407 q 408 354 387 293 q 366 231 366 183 q 366 138 386 111 q 406 85 439 85 q 471 85 500 107 q 530 128 557 172 q 585 218 602 271 q 618 324 618 367 q 618 413 595 442 q 572 471 536 471 z"},".":{"x_min":0,"x_max":241,"ha":241,"o":"m 21 37 q 21 56 34 68 q 47 81 66 81 q 85 81 97 68 q 110 56 110 37 q 110 18 97 6 q 85 -7 66 -7 q 47 -7 34 6 q 21 19 21 37 z"},"p":{"x_min":0,"x_max":477,"ha":477,"o":"m 108 134 q 105 125 104 115 q 103 106 103 97 q 103 58 124 32 q 146 7 179 7 q 216 7 247 31 q 278 55 304 104 q 327 147 340 200 q 354 254 354 298 q 354 345 336 370 q 317 395 284 395 q 241 395 201 359 q 162 323 145 265 z m 93 384 l 34 384 l 38 398 l 76 398 q 111 398 134 401 q 157 404 178 410 l 156 331 q 186 371 219 391 q 253 411 289 411 q 350 411 388 366 q 426 321 426 248 q 426 204 413 163 q 401 123 377 91 q 343 44 294 18 q 246 -9 196 -9 q 152 -9 126 12 q 100 33 91 75 l 5 -227 l 62 -227 l 59 -241 l -130 -241 l -126 -227 l -71 -227 z"},"X":{"x_min":0,"x_max":509,"ha":509,"o":"m 234 305 l 60 77 q 51 66 48 58 q 44 49 44 42 q 44 29 56 22 q 68 16 97 14 l 97 0 l -78 0 l -78 14 q -7 15 45 84 l 50 90 l 230 324 l 139 648 l 52 648 l 52 662 l 302 662 l 302 648 l 233 648 l 297 412 l 424 576 q 436 591 442 603 q 448 614 448 622 q 448 635 435 642 q 421 649 396 649 q 394 649 388 648 q 383 648 380 648 l 380 662 l 546 662 l 546 648 q 521 647 504 638 q 487 629 468 605 l 303 393 l 409 14 l 484 14 l 484 0 l 234 0 l 234 14 l 315 14 z"},"*":{"x_min":0,"x_max":500,"ha":500,"o":"m 280 478 q 273 557 235 620 q 230 628 230 630 q 230 633 232 635 q 234 636 238 636 l 242 636 l 264 633 l 270 660 q 272 669 274 673 q 276 676 281 676 q 286 676 289 673 q 291 670 294 660 l 301 634 l 321 639 q 321 639 323 640 q 324 640 324 640 q 327 640 330 637 q 332 635 332 631 q 332 630 328 621 q 295 558 294 479 q 360 513 414 562 q 426 574 429 574 q 432 574 433 573 q 434 571 434 568 l 437 542 l 466 545 l 469 545 q 474 545 476 543 q 478 541 478 537 q 478 533 478 531 q 477 530 476 529 l 449 509 l 457 491 q 458 489 460 485 q 462 481 462 481 q 462 479 460 477 q 458 475 456 475 q 455 475 452 476 q 431 482 409 482 q 356 482 335 478 q 313 475 297 466 q 337 424 382 395 q 427 366 427 364 q 427 360 419 357 l 419 357 l 403 351 l 415 325 q 416 323 417 320 q 418 316 418 315 q 418 310 416 307 q 413 304 409 304 q 408 304 406 304 q 405 305 403 306 l 372 326 l 355 309 q 354 308 352 307 q 351 306 350 306 q 345 306 340 330 q 339 333 339 334 q 331 376 318 406 q 306 436 287 457 q 262 407 250 354 q 239 302 238 302 q 237 302 237 302 q 236 303 235 304 l 217 322 l 193 300 q 190 297 187 295 q 184 294 181 294 q 177 294 175 297 q 172 299 172 304 q 172 305 172 307 q 173 309 174 312 l 183 340 l 162 348 q 158 350 157 351 q 155 353 155 356 q 155 356 200 388 q 245 419 277 467 q 265 471 250 472 q 236 474 219 474 q 188 474 157 470 q 126 467 125 467 q 117 467 113 469 q 109 471 109 475 q 109 476 110 477 l 125 496 l 94 515 q 90 518 88 520 q 87 522 87 525 q 87 528 91 530 q 94 533 100 533 q 102 533 105 533 q 108 532 110 532 l 134 530 l 134 555 q 134 561 137 564 q 139 567 143 567 q 145 567 154 558 q 208 504 280 478 z"},"Y":{"x_min":0,"x_max":431,"ha":431,"o":"m -23 0 l -19 14 l 57 14 l 131 279 l 101 648 l 35 648 l 35 662 l 270 662 l 270 648 l 190 648 l 219 300 l 428 589 q 438 604 444 614 q 449 624 449 628 q 449 639 440 644 q 430 649 407 649 q 404 649 396 648 q 388 648 383 648 l 387 662 l 528 662 l 525 648 q 489 648 464 613 q 461 609 460 607 l 219 272 l 153 14 l 235 14 l 232 0 z"},"c":{"x_min":0,"x_max":359,"ha":359,"o":"m 305 140 q 274 68 229 28 q 184 -11 132 -11 q 76 -11 36 33 q -3 78 -3 142 q -3 193 17 242 q 37 292 75 333 q 111 372 149 391 q 188 410 230 410 q 274 410 300 391 q 326 372 326 341 q 326 321 312 308 q 299 295 278 295 q 260 295 247 308 q 234 321 234 339 q 234 368 253 386 q 256 388 256 389 q 256 392 249 394 q 242 396 230 396 q 203 396 180 379 q 157 361 139 327 q 127 305 117 278 q 107 251 99 219 q 87 174 81 138 q 75 103 75 80 q 75 45 91 27 q 106 9 136 9 q 181 9 220 44 q 259 79 291 148 z"},"!":{"x_min":0,"x_max":329,"ha":329,"o":"m 124 158 l 109 162 q 146 287 161 365 q 177 443 177 498 q 177 506 176 519 q 176 531 174 551 q 206 571 229 601 q 253 630 272 676 q 272 672 271 665 q 270 631 270 617 q 270 593 276 576 q 281 560 293 547 q 245 486 203 389 q 161 291 124 158 z m 21 30 q 21 49 34 62 q 47 75 66 75 q 84 75 97 62 q 110 49 110 30 q 110 11 97 -1 q 85 -14 66 -14 q 47 -14 34 -1 q 21 12 21 30 z"},"/":{"x_min":0,"x_max":278,"ha":278,"o":"m 297 676 l 324 676 l -69 -93 l -95 -93 z"},"[":{"x_min":0,"x_max":324,"ha":324,"o":"m 168 -213 l -49 -213 l 194 662 l 410 662 l 406 647 l 257 647 l 23 -198 l 172 -198 z"},"6":{"x_min":0,"x_max":481,"ha":481,"o":"m 267 388 q 193 388 142 313 q 92 239 92 124 q 92 63 117 33 q 143 3 195 3 q 227 3 251 19 q 275 36 291 67 q 319 124 335 183 q 351 242 351 292 q 351 337 329 363 q 306 388 267 388 z m 451 664 l 451 651 q 325 648 251 574 q 177 501 137 337 q 162 369 200 386 q 238 404 283 404 q 350 404 394 358 q 438 312 438 240 q 438 198 422 156 q 405 114 375 78 q 340 37 291 12 q 243 -12 198 -12 q 118 -12 69 50 q 19 112 19 213 q 19 300 51 381 q 83 462 142 527 q 207 597 282 630 q 358 664 451 664 z"},"r":{"x_min":0,"x_max":324,"ha":324,"o":"m 139 304 q 175 358 209 384 q 243 409 278 409 q 301 409 314 397 q 327 384 327 362 q 327 341 314 327 q 300 313 280 313 q 263 313 251 325 q 239 336 239 352 q 239 357 242 366 q 246 375 246 379 q 246 380 244 380 q 216 380 175 330 q 133 279 113 213 l 48 0 l -30 0 l 89 384 l 30 384 l 34 398 l 72 398 q 107 398 131 401 q 154 404 175 410 z"},"2":{"x_min":0,"x_max":481,"ha":481,"o":"m -23 0 q -13 38 9 72 q 30 105 65 139 q 83 157 139 196 q 194 235 222 256 q 290 307 329 378 q 368 449 368 522 q 368 580 333 615 q 299 650 243 650 q 189 650 148 618 q 107 586 107 548 q 107 536 111 527 q 116 518 130 505 q 134 501 141 494 q 172 464 172 446 q 172 431 161 420 q 150 410 134 410 q 112 410 97 438 q 81 466 81 507 q 81 577 132 621 q 183 665 265 665 q 351 665 404 621 q 458 577 458 508 q 458 442 421 390 q 384 337 288 272 q 263 255 213 226 q 80 145 33 80 l 299 80 q 336 80 351 90 q 366 101 386 132 l 397 127 q 377 93 361 61 q 345 30 331 0 z"},"{":{"x_min":0,"x_max":500,"ha":500,"o":"m 413 740 l 413 715 q 344 714 318 688 q 293 662 293 586 l 293 516 q 293 406 263 365 q 233 325 153 310 q 233 295 263 255 q 293 214 293 104 l 293 34 q 293 -42 318 -68 q 343 -93 413 -94 l 413 -119 l 408 -119 q 302 -119 263 -83 q 223 -47 223 50 l 223 154 q 223 231 194 260 q 166 290 86 296 l 86 325 q 167 333 195 361 q 223 390 223 467 l 223 571 q 223 668 263 704 q 302 740 408 740 z"},"9":{"x_min":0,"x_max":481,"ha":481,"o":"m 207 264 q 281 264 332 339 q 382 413 382 528 q 382 589 356 619 q 331 649 279 649 q 248 649 224 633 q 200 617 184 585 q 155 528 139 469 q 123 409 123 360 q 123 315 146 290 q 168 264 207 264 z m 23 -12 l 23 1 q 149 4 223 77 q 297 151 337 315 q 312 283 274 265 q 236 248 191 248 q 124 248 80 294 q 36 340 36 412 q 36 455 52 497 q 69 539 99 574 q 134 615 183 639 q 231 664 276 664 q 356 664 406 603 q 455 541 455 440 q 455 353 423 271 q 391 189 332 125 q 268 55 192 21 q 116 -12 23 -12 z"}," ":{"x_min":0,"x_max":241,"ha":241,"o":""},"I":{"x_min":0,"x_max":282,"ha":282,"o":"m -72 0 l -69 14 l 6 14 l 182 648 l 107 648 l 111 662 l 361 662 l 357 648 l 275 648 l 100 14 l 181 14 l 178 0 z"},"H":{"x_min":0,"x_max":713,"ha":713,"o":"m -72 0 l -69 14 l 6 14 l 182 648 l 107 648 l 111 662 l 361 662 l 357 648 l 275 648 l 193 352 l 531 352 l 613 648 l 530 648 l 534 662 l 784 662 l 780 648 l 707 648 l 531 14 l 604 14 l 601 0 l 351 0 l 354 14 l 437 14 l 527 338 l 190 338 l 100 14 l 181 14 l 178 0 z"},"4":{"x_min":0,"x_max":481,"ha":481,"o":"m 108 0 l 114 19 l 195 19 l 245 199 l -20 199 l 406 681 l 416 673 l 46 250 l 259 250 l 320 470 l 417 526 l 341 250 l 453 250 l 438 199 l 326 199 l 277 19 l 355 19 l 349 0 z"},"~":{"x_min":0,"x_max":833,"ha":833,"o":"m 747 370 l 747 306 q 698 271 651 253 q 604 236 558 236 q 537 236 514 240 q 491 245 465 253 q 450 258 422 268 q 324 303 275 303 q 234 303 190 285 q 146 267 87 225 l 87 290 q 138 326 186 343 q 233 361 276 361 q 303 361 333 355 q 362 349 418 329 q 424 327 435 323 q 515 294 559 294 q 601 294 645 312 q 689 330 747 370 z"},"D":{"x_min":0,"x_max":653,"ha":653,"o":"m 102 14 l 210 14 q 291 14 349 48 q 407 81 444 150 q 483 221 506 312 q 530 402 530 482 q 530 569 487 608 q 444 648 350 648 l 275 648 z m -72 0 l -69 14 l 6 14 l 182 648 l 107 648 l 111 662 l 362 662 q 432 662 477 646 q 521 629 555 592 q 589 554 606 505 q 624 457 624 400 q 624 324 595 252 q 567 180 513 120 q 456 57 389 29 q 322 0 231 0 z"},"^":{"x_min":0,"x_max":1000,"ha":1000,"o":"m 456 714 l 543 714 l 797 438 l 752 438 l 499 651 l 245 438 l 201 438 z"},"0":{"x_min":0,"x_max":481,"ha":481,"o":"m 327 653 q 288 653 252 617 q 216 581 182 506 q 165 468 147 417 q 130 365 116 307 q 101 246 92 190 q 84 134 84 96 q 84 50 102 26 q 120 1 153 1 q 192 1 228 36 q 263 72 297 146 q 314 184 331 236 q 349 288 364 349 q 379 411 388 465 q 396 520 396 557 q 396 603 378 628 q 360 653 327 653 z m 316 664 q 386 664 423 607 q 460 550 460 443 q 460 372 442 302 q 424 231 390 168 q 344 83 284 35 q 224 -13 163 -13 q 94 -13 56 44 q 19 102 19 208 q 19 280 37 351 q 55 422 89 484 q 135 568 195 616 q 256 664 316 664 z"},"F":{"x_min":0,"x_max":525,"ha":525,"o":"m -71 0 l -67 14 l 8 14 l 184 648 l 109 648 l 113 662 l 567 662 l 544 482 l 529 482 q 529 483 529 485 q 531 505 531 516 q 531 581 500 615 q 470 648 411 648 l 277 648 l 198 367 l 255 367 q 311 367 331 386 q 352 404 368 468 l 383 468 l 315 219 l 301 219 q 310 253 314 273 q 318 293 318 302 q 318 326 300 339 q 283 353 252 353 l 193 353 l 101 14 l 182 14 l 178 0 z"},"`":{"x_min":0,"x_max":500,"ha":500,"o":"m 355 465 l 322 465 l 203 564 q 188 577 182 586 q 176 595 176 606 q 176 620 186 630 q 196 640 209 640 q 219 640 230 633 q 242 625 251 612 z"},"k":{"x_min":0,"x_max":447,"ha":447,"o":"m 46 0 l -31 0 l 179 648 l 120 648 l 124 662 l 148 662 q 182 662 211 668 q 241 674 269 687 l 125 260 l 132 260 q 170 260 196 276 q 222 292 241 328 q 246 337 255 354 q 296 433 336 433 q 361 433 378 419 q 394 405 394 384 q 394 367 382 355 q 370 343 352 343 q 338 343 329 351 q 320 358 316 375 q 313 387 310 391 q 307 395 302 395 q 289 395 268 353 q 260 338 256 330 q 232 286 214 270 q 196 254 169 251 q 219 244 242 219 q 265 195 270 142 l 277 75 q 281 41 286 32 q 292 24 303 24 q 321 24 341 52 q 361 80 376 128 l 389 125 q 373 61 341 26 q 310 -9 267 -9 q 246 -9 232 0 q 218 9 209 29 q 199 53 196 123 q 195 152 194 169 q 191 213 175 229 q 159 246 122 247 z"},"u":{"x_min":0,"x_max":463,"ha":463,"o":"m 82 384 l 23 384 l 27 398 l 65 398 q 100 398 124 401 q 147 404 168 410 l 70 90 q 66 77 63 65 q 61 53 61 47 q 61 33 70 24 q 79 15 94 15 q 107 15 123 23 q 139 31 161 49 q 205 84 229 119 q 254 154 269 201 l 332 398 l 408 398 l 311 91 q 305 72 302 59 q 299 45 299 39 q 299 29 305 21 q 312 13 320 13 q 335 13 359 36 q 382 58 409 99 l 420 91 q 390 41 358 16 q 327 -9 295 -9 q 264 -9 247 9 q 230 27 230 60 q 230 70 232 82 q 234 95 239 110 q 195 52 150 21 q 105 -9 63 -9 q 29 -9 9 10 q -11 29 -11 61 q -11 70 -8 87 q -4 104 1 122 z"},"]":{"x_min":0,"x_max":324,"ha":324,"o":"m 97 662 l 314 662 l 71 -213 l -145 -213 l -141 -198 l 8 -198 l 242 647 l 93 647 z"},"U":{"x_min":0,"x_max":616,"ha":616,"o":"m 149 648 l 75 648 l 78 662 l 328 662 l 325 648 l 243 648 l 121 209 q 113 182 110 159 q 106 136 106 115 q 106 63 144 33 q 181 3 245 3 q 347 3 404 48 q 461 92 490 195 l 599 589 q 602 599 604 605 q 605 612 605 616 q 605 635 593 641 q 581 648 542 648 l 523 648 l 528 662 l 710 662 l 706 648 q 663 648 645 637 q 628 626 616 583 l 515 219 q 479 87 417 36 q 356 -14 238 -14 q 140 -14 78 29 q 17 72 17 139 q 17 153 21 175 q 24 197 32 225 z"},"o":{"x_min":0,"x_max":435,"ha":435,"o":"m 144 -12 q 75 -12 32 34 q -10 80 -10 155 q -10 198 6 241 q 22 284 52 320 q 92 368 134 389 q 175 410 228 410 q 293 410 333 365 q 373 320 373 245 q 373 200 357 157 q 341 114 311 78 q 273 33 232 10 q 190 -12 144 -12 z m 223 398 q 189 398 164 375 q 139 353 115 301 q 89 247 74 189 q 59 130 59 92 q 59 48 80 24 q 101 1 141 1 q 173 1 199 24 q 225 47 249 97 q 274 149 289 208 q 304 267 304 309 q 304 354 284 376 q 264 398 223 398 z"},"N":{"x_min":0,"x_max":611,"ha":611,"o":"m -87 0 l -87 14 q -42 14 -23 27 q -5 41 10 94 l 165 648 l 79 648 l 83 662 l 261 662 l 459 115 l 592 587 q 592 588 593 590 q 596 605 596 613 q 596 631 581 639 q 566 647 526 650 l 529 662 l 699 662 l 695 651 q 655 648 638 637 q 621 626 608 582 l 447 8 l 408 -8 l 176 622 l 23 78 q 21 71 20 64 q 19 57 19 51 q 19 32 34 24 q 49 16 85 14 l 85 0 z"},"+":{"x_min":0,"x_max":833,"ha":833,"o":"m 388 596 l 446 596 l 446 327 l 709 327 l 709 270 l 446 270 l 446 0 l 388 0 l 388 270 l 124 270 l 124 327 l 388 327 z"},"G":{"x_min":0,"x_max":639,"ha":639,"o":"m 550 227 l 517 105 q 514 92 487 66 q 459 41 425 22 q 393 4 356 -5 q 319 -14 281 -14 q 176 -14 103 66 q 29 146 29 259 q 29 334 58 406 q 86 478 141 539 q 200 605 270 640 q 339 676 409 676 q 449 676 481 666 q 513 656 546 633 q 554 627 569 616 q 598 592 615 592 q 624 592 630 599 q 637 606 643 621 l 656 619 l 592 387 l 579 391 q 583 410 584 430 q 586 450 586 475 q 586 563 542 613 q 497 662 417 662 q 350 662 304 627 q 258 592 214 505 q 167 411 140 323 q 113 234 113 176 q 113 90 156 46 q 200 2 284 2 q 337 2 371 29 q 406 57 421 111 l 452 227 l 383 227 l 387 241 l 622 241 l 622 227 z"},"q":{"x_min":0,"x_max":470,"ha":470,"o":"m 248 56 q 218 23 188 7 q 158 -9 126 -9 q 65 -9 27 36 q -11 81 -11 154 q -11 198 1 239 q 14 279 38 311 q 72 358 121 385 q 170 412 219 412 q 263 412 290 391 q 316 369 323 328 l 339 384 l 416 384 l 246 -227 l 301 -227 l 297 -241 l 109 -241 l 112 -227 l 169 -227 z m 307 269 q 310 279 311 288 q 312 297 312 305 q 312 344 291 370 q 269 395 236 395 q 199 395 168 371 q 137 347 111 298 q 88 255 75 201 q 61 148 61 104 q 61 58 79 32 q 98 7 131 7 q 175 7 214 43 q 252 79 269 138 z"},"d":{"x_min":0,"x_max":470,"ha":470,"o":"m 420 648 l 361 648 l 365 662 l 389 662 q 423 662 453 668 q 483 675 510 688 l 333 88 q 328 70 325 57 q 322 43 322 37 q 322 25 328 17 q 334 9 343 9 q 358 9 382 32 q 406 56 432 97 l 444 88 q 407 31 378 9 q 350 -13 316 -13 q 289 -13 272 3 q 255 20 248 54 q 219 21 188 4 q 158 -12 126 -12 q 65 -12 27 33 q -11 78 -11 152 q -11 196 1 237 q 14 277 38 309 q 73 357 122 384 q 170 411 219 411 q 263 411 290 390 q 316 368 323 327 z m 307 269 q 310 279 311 288 q 312 297 312 305 q 312 344 291 370 q 269 395 236 395 q 199 395 168 371 q 137 347 111 298 q 88 255 75 201 q 61 148 61 104 q 61 58 79 32 q 98 7 131 7 q 175 7 214 43 q 252 79 269 138 z"},"1":{"x_min":0,"x_max":481,"ha":481,"o":"m 27 0 l 31 16 q 37 16 43 15 q 49 15 60 15 q 98 15 114 28 q 130 40 145 89 l 294 597 q 254 570 206 544 q 157 519 92 492 l 87 505 q 146 529 219 570 q 293 612 412 688 l 226 60 q 224 53 223 48 q 222 43 222 39 q 222 18 283 17 q 300 16 309 16 l 306 0 z"},"5":{"x_min":0,"x_max":481,"ha":481,"o":"m 87 297 l 78 300 l 183 662 q 252 638 281 631 q 311 624 332 624 q 367 624 396 635 q 425 647 450 671 q 445 613 402 580 q 358 546 288 546 q 264 546 236 551 q 207 556 174 566 l 116 370 q 142 398 176 413 q 209 427 250 427 q 320 427 363 384 q 406 342 406 273 q 406 217 379 164 q 352 110 301 66 q 257 28 210 8 q 164 -12 120 -12 q 61 -12 22 19 q -17 49 -17 94 q -17 124 -1 144 q 15 164 38 164 q 58 164 71 151 q 85 137 85 118 q 85 106 79 95 q 74 84 63 75 q 59 72 51 66 q 33 53 33 40 q 33 25 57 14 q 81 4 119 4 q 159 4 190 23 q 222 42 244 79 q 275 134 294 194 q 313 253 313 297 q 313 343 287 372 q 260 400 218 400 q 177 400 143 374 q 109 347 87 297 z"}}}
